<svg xmlns="http://www.w3.org/2000/svg" xmlns:xlink="http://www.w3.org/1999/xlink" version="1.1" class="marks" width="531" height="244" viewBox="0 0 531 244"><rect width="531" height="244" fill="white"/><g fill="none" stroke-miterlimit="10" transform="translate(78,5)"><g class="mark-group role-frame root" role="graphics-object" aria-roledescription="group mark container"><g transform="translate(0,0)"><path class="background" aria-hidden="true" d="M0.5,0.5h380v200h-380Z" stroke="#ddd"/><g><g class="mark-group role-axis" aria-hidden="true"><g transform="translate(0.5,0.5)"><path class="background" aria-hidden="true" d="M0,0h0v0h0Z" pointer-events="none"/><g><g class="mark-rule role-axis-grid" pointer-events="none"><line transform="translate(0,200)" x2="380" y2="0" stroke="#ddd" stroke-width="1" opacity="1"/><line transform="translate(0,117)" x2="380" y2="0" stroke="#ddd" stroke-width="1" opacity="1"/><line transform="translate(0,158)" x2="380" y2="0" stroke="#ddd" stroke-width="1" opacity="1"/><line transform="translate(0,75)" x2="380" y2="0" stroke="#ddd" stroke-width="1" opacity="1"/><line transform="translate(0,33)" x2="380" y2="0" stroke="#ddd" stroke-width="1" opacity="1"/></g></g><path class="foreground" aria-hidden="true" d="" pointer-events="none" display="none"/></g></g><g class="mark-group role-axis" role="graphics-symbol" aria-roledescription="axis" aria-label="X-axis titled 'age' for a discrete scale with 19 values: 0, 5, 10, 15, 20, ending with 90"><g transform="translate(0.5,200.5)"><path class="background" aria-hidden="true" d="M0,0h0v0h0Z" pointer-events="none"/><g><g class="mark-rule role-axis-tick" pointer-events="none"><line transform="translate(10,0)" x2="0" y2="5" stroke="#888" stroke-width="1" opacity="1"/><line transform="translate(30,0)" x2="0" y2="5" stroke="#888" stroke-width="1" opacity="1"/><line transform="translate(50,0)" x2="0" y2="5" stroke="#888" stroke-width="1" opacity="1"/><line transform="translate(70,0)" x2="0" y2="5" stroke="#888" stroke-width="1" opacity="1"/><line transform="translate(90,0)" x2="0" y2="5" stroke="#888" stroke-width="1" opacity="1"/><line transform="translate(110,0)" x2="0" y2="5" stroke="#888" stroke-width="1" opacity="1"/><line transform="translate(130,0)" x2="0" y2="5" stroke="#888" stroke-width="1" opacity="1"/><line transform="translate(150,0)" x2="0" y2="5" stroke="#888" stroke-width="1" opacity="1"/><line transform="translate(170,0)" x2="0" y2="5" stroke="#888" stroke-width="1" opacity="1"/><line transform="translate(190,0)" x2="0" y2="5" stroke="#888" stroke-width="1" opacity="1"/><line transform="translate(210,0)" x2="0" y2="5" stroke="#888" stroke-width="1" opacity="1"/><line transform="translate(230,0)" x2="0" y2="5" stroke="#888" stroke-width="1" opacity="1"/><line transform="translate(250,0)" x2="0" y2="5" stroke="#888" stroke-width="1" opacity="1"/><line transform="translate(270,0)" x2="0" y2="5" stroke="#888" stroke-width="1" opacity="1"/><line transform="translate(290,0)" x2="0" y2="5" stroke="#888" stroke-width="1" opacity="1"/><line transform="translate(310,0)" x2="0" y2="5" stroke="#888" stroke-width="1" opacity="1"/><line transform="translate(330,0)" x2="0" y2="5" stroke="#888" stroke-width="1" opacity="1"/><line transform="translate(350,0)" x2="0" y2="5" stroke="#888" stroke-width="1" opacity="1"/><line transform="translate(370,0)" x2="0" y2="5" stroke="#888" stroke-width="1" opacity="1"/></g><g class="mark-text role-axis-label" pointer-events="none"><text text-anchor="end" transform="translate(9.5,7) rotate(270) translate(0,3)" font-family="sans-serif" font-size="10px" fill="#000" opacity="1">0</text><text text-anchor="end" transform="translate(29.5,7) rotate(270) translate(0,3)" font-family="sans-serif" font-size="10px" fill="#000" opacity="1">5</text><text text-anchor="end" transform="translate(49.5,7) rotate(270) translate(0,3)" font-family="sans-serif" font-size="10px" fill="#000" opacity="1">10</text><text text-anchor="end" transform="translate(69.5,7) rotate(270) translate(0,3)" font-family="sans-serif" font-size="10px" fill="#000" opacity="1">15</text><text text-anchor="end" transform="translate(89.5,7) rotate(270) translate(0,3)" font-family="sans-serif" font-size="10px" fill="#000" opacity="1">20</text><text text-anchor="end" transform="translate(109.5,7) rotate(270) translate(0,3)" font-family="sans-serif" font-size="10px" fill="#000" opacity="1">25</text><text text-anchor="end" transform="translate(129.5,7) rotate(270) translate(0,3)" font-family="sans-serif" font-size="10px" fill="#000" opacity="1">30</text><text text-anchor="end" transform="translate(149.5,7) rotate(270) translate(0,3)" font-family="sans-serif" font-size="10px" fill="#000" opacity="1">35</text><text text-anchor="end" transform="translate(169.5,7) rotate(270) translate(0,3)" font-family="sans-serif" font-size="10px" fill="#000" opacity="1">40</text><text text-anchor="end" transform="translate(189.5,7) rotate(270) translate(0,3)" font-family="sans-serif" font-size="10px" fill="#000" opacity="1">45</text><text text-anchor="end" transform="translate(209.5,7) rotate(270) translate(0,3)" font-family="sans-serif" font-size="10px" fill="#000" opacity="1">50</text><text text-anchor="end" transform="translate(229.5,7) rotate(270) translate(0,3)" font-family="sans-serif" font-size="10px" fill="#000" opacity="1">55</text><text text-anchor="end" transform="translate(249.5,7) rotate(270) translate(0,3)" font-family="sans-serif" font-size="10px" fill="#000" opacity="1">60</text><text text-anchor="end" transform="translate(269.5,7) rotate(270) translate(0,3)" font-family="sans-serif" font-size="10px" fill="#000" opacity="1">65</text><text text-anchor="end" transform="translate(289.5,7) rotate(270) translate(0,3)" font-family="sans-serif" font-size="10px" fill="#000" opacity="1">70</text><text text-anchor="end" transform="translate(309.5,7) rotate(270) translate(0,3)" font-family="sans-serif" font-size="10px" fill="#000" opacity="1">75</text><text text-anchor="end" transform="translate(329.5,7) rotate(270) translate(0,3)" font-family="sans-serif" font-size="10px" fill="#000" opacity="1">80</text><text text-anchor="end" transform="translate(349.5,7) rotate(270) translate(0,3)" font-family="sans-serif" font-size="10px" fill="#000" opacity="1">85</text><text text-anchor="end" transform="translate(369.5,7) rotate(270) translate(0,3)" font-family="sans-serif" font-size="10px" fill="#000" opacity="1">90</text></g><g class="mark-rule role-axis-domain" pointer-events="none"><line transform="translate(0,0)" x2="380" y2="0" stroke="#888" stroke-width="1" opacity="1"/></g><g class="mark-text role-axis-title" pointer-events="none"><text text-anchor="middle" transform="translate(190,31.123046875)" font-family="sans-serif" font-size="11px" font-weight="bold" fill="#000" opacity="1">age</text></g></g><path class="foreground" aria-hidden="true" d="" pointer-events="none" display="none"/></g></g><g class="mark-group role-axis" role="graphics-symbol" aria-roledescription="axis" aria-label="Y-axis titled 'Sum of people' for a linear scale with values from 0 to 24,000,000"><g transform="translate(0.5,0.5)"><path class="background" aria-hidden="true" d="M0,0h0v0h0Z" pointer-events="none"/><g><g class="mark-rule role-axis-tick" pointer-events="none"><line transform="translate(0,200)" x2="-5" y2="0" stroke="#888" stroke-width="1" opacity="1"/><line transform="translate(0,117)" x2="-5" y2="0" stroke="#888" stroke-width="1" opacity="1"/><line transform="translate(0,158)" x2="-5" y2="0" stroke="#888" stroke-width="1" opacity="1"/><line transform="translate(0,75)" x2="-5" y2="0" stroke="#888" stroke-width="1" opacity="1"/><line transform="translate(0,33)" x2="-5" y2="0" stroke="#888" stroke-width="1" opacity="1"/></g><g class="mark-text role-axis-label" pointer-events="none"><text text-anchor="end" transform="translate(-7,203)" font-family="sans-serif" font-size="10px" fill="#000" opacity="1">0</text><text text-anchor="end" transform="translate(-7,119.66666666666666)" font-family="sans-serif" font-size="10px" fill="#000" opacity="1">10,000,000</text><text text-anchor="end" transform="translate(-7,161.33333333333331)" font-family="sans-serif" font-size="10px" fill="#000" opacity="1">5,000,000</text><text text-anchor="end" transform="translate(-7,78)" font-family="sans-serif" font-size="10px" fill="#000" opacity="1">15,000,000</text><text text-anchor="end" transform="translate(-7,36.33333333333333)" font-family="sans-serif" font-size="10px" fill="#000" opacity="1">20,000,000</text></g><g class="mark-rule role-axis-domain" pointer-events="none"><line transform="translate(0,200)" x2="0" y2="-200" stroke="#888" stroke-width="1" opacity="1"/></g><g class="mark-text role-axis-title" pointer-events="none"><text text-anchor="middle" transform="translate(-61.048828125,100) rotate(-90) translate(0,-2)" font-family="sans-serif" font-size="11px" font-weight="bold" fill="#000" opacity="1">Sum of people</text></g></g><path class="foreground" aria-hidden="true" d="" pointer-events="none" display="none"/></g></g><g class="mark-rect role-mark marks" role="graphics-object" aria-roledescription="rect mark container"><path aria-label="Sum of people: 9735380; age: 0; gender: Male" role="graphics-symbol" aria-roledescription="bar" d="M1,118.87183333333333h18v81.12816666666667h-18Z" fill="#f58518" opacity="1"/><path aria-label="Sum of people: 9310714; age: 0; gender: Female" role="graphics-symbol" aria-roledescription="bar" d="M1,41.28255000000001h18v77.58928333333333h-18Z" fill="#4c78a8" opacity="1"/><path aria-label="Sum of people: 10552146; age: 5; gender: Male" role="graphics-symbol" aria-roledescription="bar" d="M21,112.06545000000001h18v87.93454999999999h-18Z" fill="#f58518" opacity="1"/><path aria-label="Sum of people: 10069564; age: 5; gender: Female" role="graphics-symbol" aria-roledescription="bar" d="M21,28.152416666666657h18v83.91303333333336h-18Z" fill="#4c78a8" opacity="1"/><path aria-label="Sum of people: 10563233; age: 10; gender: Male" role="graphics-symbol" aria-roledescription="bar" d="M41,111.97305833333333h18v88.02694166666667h-18Z" fill="#f58518" opacity="1"/><path aria-label="Sum of people: 10022524; age: 10; gender: Female" role="graphics-symbol" aria-roledescription="bar" d="M41,28.452024999999992h18v83.52103333333334h-18Z" fill="#4c78a8" opacity="1"/><path aria-label="Sum of people: 10237419; age: 15; gender: Male" role="graphics-symbol" aria-roledescription="bar" d="M61,114.68817499999999h18v85.31182500000001h-18Z" fill="#f58518" opacity="1"/><path aria-label="Sum of people: 9692669; age: 15; gender: Female" role="graphics-symbol" aria-roledescription="bar" d="M61,33.915933333333335h18v80.77224166666664h-18Z" fill="#4c78a8" opacity="1"/><path aria-label="Sum of people: 9731315; age: 20; gender: Male" role="graphics-symbol" aria-roledescription="bar" d="M81,118.90570833333334h18v81.09429166666666h-18Z" fill="#f58518" opacity="1"/><path aria-label="Sum of people: 9324244; age: 20; gender: Female" role="graphics-symbol" aria-roledescription="bar" d="M81,41.203675h18v77.70203333333333h-18Z" fill="#4c78a8" opacity="1"/><path aria-label="Sum of people: 9659493; age: 25; gender: Male" role="graphics-symbol" aria-roledescription="bar" d="M101,119.50422499999999h18v80.49577500000001h-18Z" fill="#f58518" opacity="1"/><path aria-label="Sum of people: 9518507; age: 25; gender: Female" role="graphics-symbol" aria-roledescription="bar" d="M101,40.18333333333332h18v79.32089166666667h-18Z" fill="#4c78a8" opacity="1"/><path aria-label="Sum of people: 10205879; age: 30; gender: Male" role="graphics-symbol" aria-roledescription="bar" d="M121,114.95100833333333h18v85.04899166666667h-18Z" fill="#f58518" opacity="1"/><path aria-label="Sum of people: 10119296; age: 30; gender: Female" role="graphics-symbol" aria-roledescription="bar" d="M121,30.623541666666675h18v84.32746666666665h-18Z" fill="#4c78a8" opacity="1"/><path aria-label="Sum of people: 11475182; age: 35; gender: Male" role="graphics-symbol" aria-roledescription="bar" d="M141,104.37348333333331h18v95.62651666666669h-18Z" fill="#f58518" opacity="1"/><path aria-label="Sum of people: 11635647; age: 35; gender: Female" role="graphics-symbol" aria-roledescription="bar" d="M141,7.409758333333327h18v96.96372499999998h-18Z" fill="#4c78a8" opacity="1"/><path aria-label="Sum of people: 11320252; age: 40; gender: Male" role="graphics-symbol" aria-roledescription="bar" d="M161,105.66456666666669h18v94.33543333333331h-18Z" fill="#f58518" opacity="1"/><path aria-label="Sum of people: 11488578; age: 40; gender: Female" role="graphics-symbol" aria-roledescription="bar" d="M161,9.926416666666672h18v95.73815000000002h-18Z" fill="#4c78a8" opacity="1"/><path aria-label="Sum of people: 9925006; age: 45; gender: Male" role="graphics-symbol" aria-roledescription="bar" d="M181,117.29161666666666h18v82.70838333333334h-18Z" fill="#f58518" opacity="1"/><path aria-label="Sum of people: 10261253; age: 45; gender: Female" role="graphics-symbol" aria-roledescription="bar" d="M181,31.781174999999994h18v85.51044166666667h-18Z" fill="#4c78a8" opacity="1"/><path aria-label="Sum of people: 8507934; age: 50; gender: Male" role="graphics-symbol" aria-roledescription="bar" d="M201,129.10055h18v70.89945h-18Z" fill="#f58518" opacity="1"/><path aria-label="Sum of people: 8911133; age: 50; gender: Female" role="graphics-symbol" aria-roledescription="bar" d="M201,54.84110833333333h18v74.25944166666667h-18Z" fill="#4c78a8" opacity="1"/><path aria-label="Sum of people: 6459082; age: 55; gender: Male" role="graphics-symbol" aria-roledescription="bar" d="M221,146.17431666666667h18v53.82568333333333h-18Z" fill="#f58518" opacity="1"/><path aria-label="Sum of people: 6921268; age: 55; gender: Female" role="graphics-symbol" aria-roledescription="bar" d="M221,88.49708333333332h18v57.67723333333335h-18Z" fill="#4c78a8" opacity="1"/><path aria-label="Sum of people: 5123399; age: 60; gender: Male" role="graphics-symbol" aria-roledescription="bar" d="M241,157.30500833333335h18v42.69499166666665h-18Z" fill="#f58518" opacity="1"/><path aria-label="Sum of people: 5668961; age: 60; gender: Female" role="graphics-symbol" aria-roledescription="bar" d="M241,110.06366666666668h18v47.24134166666667h-18Z" fill="#4c78a8" opacity="1"/><path aria-label="Sum of people: 4453623; age: 65; gender: Male" role="graphics-symbol" aria-roledescription="bar" d="M261,162.886475h18v37.11352500000001h-18Z" fill="#f58518" opacity="1"/><path aria-label="Sum of people: 4804784; age: 65; gender: Female" role="graphics-symbol" aria-roledescription="bar" d="M261,122.84660833333332h18v40.03986666666667h-18Z" fill="#4c78a8" opacity="1"/><path aria-label="Sum of people: 3792145; age: 70; gender: Male" role="graphics-symbol" aria-roledescription="bar" d="M281,168.39879166666668h18v31.601208333333318h-18Z" fill="#f58518" opacity="1"/><path aria-label="Sum of people: 5184855; age: 70; gender: Female" role="graphics-symbol" aria-roledescription="bar" d="M281,125.19166666666668h18v43.207125000000005h-18Z" fill="#4c78a8" opacity="1"/><path aria-label="Sum of people: 2912655; age: 75; gender: Male" role="graphics-symbol" aria-roledescription="bar" d="M301,175.727875h18v24.27212499999999h-18Z" fill="#f58518" opacity="1"/><path aria-label="Sum of people: 4355644; age: 75; gender: Female" role="graphics-symbol" aria-roledescription="bar" d="M301,139.43084166666665h18v36.29703333333336h-18Z" fill="#4c78a8" opacity="1"/><path aria-label="Sum of people: 1902638; age: 80; gender: Male" role="graphics-symbol" aria-roledescription="bar" d="M321,184.14468333333335h18v15.855316666666653h-18Z" fill="#f58518" opacity="1"/><path aria-label="Sum of people: 3221898; age: 80; gender: Female" role="graphics-symbol" aria-roledescription="bar" d="M321,157.29553333333334h18v26.84915000000001h-18Z" fill="#4c78a8" opacity="1"/><path aria-label="Sum of people: 970357; age: 85; gender: Male" role="graphics-symbol" aria-roledescription="bar" d="M341,191.91369166666667h18v8.086308333333335h-18Z" fill="#f58518" opacity="1"/><path aria-label="Sum of people: 1981156; age: 85; gender: Female" role="graphics-symbol" aria-roledescription="bar" d="M341,175.40405833333332h18v16.50963333333334h-18Z" fill="#4c78a8" opacity="1"/><path aria-label="Sum of people: 336303; age: 90; gender: Male" role="graphics-symbol" aria-roledescription="bar" d="M361,197.197475h18v2.802525000000003h-18Z" fill="#f58518" opacity="1"/><path aria-label="Sum of people: 1064581; age: 90; gender: Female" role="graphics-symbol" aria-roledescription="bar" d="M361,188.32596666666666h18v8.871508333333338h-18Z" fill="#4c78a8" opacity="1"/></g><g class="mark-group role-legend" role="graphics-symbol" aria-roledescription="legend" aria-label="Symbol legend titled 'gender' for fill color with 2 values: Female, Male"><g transform="translate(398,0)"><path class="background" aria-hidden="true" d="M0,0h50v40h-50Z" pointer-events="none"/><g><g class="mark-group role-legend-entry"><g transform="translate(0,16)"><path class="background" aria-hidden="true" d="M0,0h0v0h0Z" pointer-events="none"/><g><g class="mark-group role-scope" role="graphics-object" aria-roledescription="group mark container"><g transform="translate(0,0)"><path class="background" aria-hidden="true" d="M0,0h49.3447265625v11h-49.3447265625Z" pointer-events="none" opacity="1"/><g><g class="mark-symbol role-legend-symbol" pointer-events="none"><path transform="translate(6,6)" d="M-5,-5h10v10h-10Z" fill="#4c78a8" stroke-width="1.5" opacity="1"/></g><g class="mark-text role-legend-label" pointer-events="none"><text text-anchor="start" transform="translate(16,9)" font-family="sans-serif" font-size="10px" fill="#000" opacity="1">Female</text></g></g><path class="foreground" aria-hidden="true" d="" pointer-events="none" display="none"/></g><g transform="translate(0,13)"><path class="background" aria-hidden="true" d="M0,0h49.3447265625v11h-49.3447265625Z" pointer-events="none" opacity="1"/><g><g class="mark-symbol role-legend-symbol" pointer-events="none"><path transform="translate(6,6)" d="M-5,-5h10v10h-10Z" fill="#f58518" stroke-width="1.5" opacity="1"/></g><g class="mark-text role-legend-label" pointer-events="none"><text text-anchor="start" transform="translate(16,9)" font-family="sans-serif" font-size="10px" fill="#000" opacity="1">Male</text></g></g><path class="foreground" aria-hidden="true" d="" pointer-events="none" display="none"/></g></g></g><path class="foreground" aria-hidden="true" d="" pointer-events="none" display="none"/></g></g><g class="mark-text role-legend-title" pointer-events="none"><text text-anchor="start" transform="translate(0,9)" font-family="sans-serif" font-size="11px" font-weight="bold" fill="#000" opacity="1">gender</text></g></g><path class="foreground" aria-hidden="true" d="" pointer-events="none" display="none"/></g></g></g><path class="foreground" aria-hidden="true" d="" display="none"/></g></g></g></svg>